<svg xmlns="http://www.w3.org/2000/svg" width="535" height="138" fill="none" viewBox="0 0 535 138"><g clip-path="url(#a)"><path fill="#fff" d="M158.075 30.665v64h-17v-64zm58.682.01c26.625 0 39.318 12.88 39.318 31.708s-13.263 32.282-39.318 32.282h-31.682v-64h31.682zm-14.981 50.737h14.501c14.982 0 23.097-7.114 23.097-18.737s-8.015-18.737-23.097-18.737h-14.501zm94.299-50.747v64h-17v-64zm42.721 64h-16.721v-64h41.909c17.588 0 26.92 7.779 26.92 20.951 0 10.375-6.826 17.198-16.822 19.894l19.993 23.155h-19.128l-18.553-21.907h-17.587v21.907zm0-34.304h21.152c9.322 0 14.033-2.788 14.033-8.453 0-5.666-3.846-8.363-13.268-8.363h-21.917zm127.683 22.941h-36.488l-5.632 11.363h-17.284l32.378-64h18.144l32.478 64h-17.954l-5.632-11.364Zm-30.747-11.654h25.026L448.345 46.34h-.19l-12.413 25.308z"/><path fill="#807c7b" d="M140 120.01h10.227c3.389 0 5.428 1.37 5.428 4.02 0 1.78-.72 3.04-2.739 3.68 2.09.82 3.084 1.9 3.084 3.79 0 3.31-2.577 4.5-6.148 4.5H140v-16zm8.928 6.4c1.35 0 1.898-.41 1.898-1.44 0-.96-.599-1.37-1.898-1.37h-4.129v2.81zm.234 5.97c1.44 0 1.998-.46 1.998-1.51 0-.98-.558-1.49-1.998-1.49h-4.363v3.02zm15.921-1.5L158 120h5.439l3.985 6.38h.232l4.037-6.38H177l-7.053 10.86V136h-4.864zM190 120h9.165c3.816 0 5.835 2.26 5.835 5.97 0 4.18-2.592 6.1-6.194 6.1h-4.146V136H190Zm8.34 8.3c1.446 0 2.068-.96 2.068-2.22 0-1.44-.69-2.22-2.107-2.22h-3.641v4.43h3.68zm14.972-8.3h7.385L226 136h-4.806l-1.07-3.31h-6.315L212.72 136H208l5.303-16zm1.615 9.1h4.108l-1.634-5.03h-.831l-1.634 5.03zM231 120h4.699v11.86H244l-.176 4.14H231Zm16.17 8.5c0-5.222 3.55-8.5 9.166-8.5s9.166 3.278 9.166 8.5-3.55 8.5-9.166 8.5-9.166-3.278-9.166-8.5m13.548 0c0-2.777-1.604-4.42-4.382-4.42s-4.382 1.653-4.382 4.42 1.604 4.42 4.352 4.42 4.402-1.653 4.402-4.42zm22.594-8.5h7.385L296 136h-4.806l-1.07-3.31h-6.315L282.72 136H278l5.303-16zm1.615 9.1h4.108l-1.634-5.03h-.831l-1.634 5.03zM301 120h4.699v11.86H314l-.176 4.14H301Zm19.593 4.11H315l.18-4.11h15.64l.18 4.11h-5.593V136h-4.814zM334 128.5c0-5.222 3.679-8.5 9.5-8.5s9.5 3.278 9.5 8.5-3.679 8.5-9.5 8.5-9.5-3.278-9.5-8.5m14.042 0c0-2.777-1.663-4.42-4.542-4.42s-4.542 1.653-4.542 4.42 1.663 4.42 4.511 4.42 4.563-1.653 4.563-4.42zM366 120h5.131l7.088 9.07h.073V120H383v16h-4.966l-7.253-9.3h-.073v9.3H366Zm23 0h13.554l.175 3.89h-9.098v2.19h7.15v3.54h-7.15v2.49H403l-.174 3.89H389.01v-16zm23.593 4.11H407l.18-4.11h15.64l.18 4.11h-5.593V136h-4.814zM426.02 120h5.105l2.602 11.11h.249l3.37-11.11h4.677l3.3 11.11h.249l2.552-11.11H453l-4.198 16h-6.271l-2.921-9.65h-.14l-2.961 9.65h-6.292L426 120Zm30.98 8.5c0-5.222 3.486-8.5 9-8.5s9 3.278 9 8.5-3.486 8.5-9 8.5-9-3.278-9-8.5m13.303 0c0-2.777-1.575-4.42-4.303-4.42s-4.303 1.653-4.303 4.42 1.575 4.42 4.273 4.42 4.323-1.653 4.323-4.42zM480 120h9.136c4.161 0 6.198 2.01 6.198 5.74 0 2.56-1.028 4.3-3.045 5.12L496 136h-5.327l-2.888-4.21H484.7V136H480Zm8.529 8.05c1.566 0 2.125-.89 2.125-2.1s-.559-2.08-2.125-2.08H484.7v4.18zM501 120h4.741v5.9h1.946l4.633-5.9h5.324l.02.02-6.055 7.66 6.391 8.3-.02.02h-5.531l-4.791-6.15h-1.917V136H501Zm20.1 15.499v-4.424h.02c2.663 1.36 5.266 2.025 7.52 2.025 1.705 0 2.573-.413 2.573-1.219s-.569-1.018-3.99-1.562c-3.74-.595-6.223-1.723-6.223-4.978 0-3.013 2.623-5.341 7.749-5.341 2.055 0 4.199.433 6.174 1.29v4.373l-.02.02c-1.895-1.108-4.448-1.793-6.493-1.793-1.825 0-2.553.433-2.553 1.179 0 .947 1.117 1.038 3.92 1.521 3.74.645 6.223 1.703 6.223 5.109 0 2.651-1.965 5.301-7.59 5.301-2.782 0-4.996-.574-7.32-1.501z"/><path fill="#265bff" d="M54.23 99.665v25l-53.995-31-.01-62 54.005-31 53.995 31-21.998 13-31.997-19-31.997 19v37z"/><path fill="#265bff" d="m54.225 99.665 32-18.337V44.665l-32 18.327z"/><path fill="#fff" d="M483.877 33.345h-4.757l.13-3.24h12.76l.11 3.24h-4.757v10.76h-3.496v-10.76zm11.243-3.24h4.075l3.965 7.215 3.865-7.215h4.095v14h-3.443v-8.673h-.06l-4.417 7.876h-.231l-4.366-7.876h-.08v8.673h-3.403z"/></g><defs><clipPath id="a"><path fill="#fff" d="M0 0h535v138H0Z"/></clipPath></defs></svg>